Supreme.Champion.2010.BRRip.XviD.Ac3.Feel-Free








PLOT: She was in trouble and only he could save her. Troy Jennings (Bonnar) is a MMA champion who is still on the road of his title reign. However, his world is about to be turned upside down. When Jenny (Marieh Delfino), a former flame turned platonic friend, tells him she owes a major gambling debt, Jennings decides he must try to help. Despite efforts from his strip club owner pals Clu (Ted Fox) and Mick (George Saunders), Jennings receives a phone call and Jenny finds herself kidnapped.



General Information

Genre: Action
Language:English
IMDb: http://www.imdb.com/title/tt1283546/
Source:.1080p.BluRay.x264.BRMP Thanks!
Format : AVI
Format/Info : Audio Video Interleave
File size : 1.04 GiB
Duration : 1h 26mn
Overall bit rate : 1 733 Kbps

Video Information

ID : 0
Format : MPEG-4 Visual
Format profile : Advanced Simple@L5
Format settings, BVOP : Yes
Format settings, QPel : No
Format settings, GMC : No warppoints
Format settings, Matrix : Default (H.263)
Codec ID : XVID
Codec ID/Hint : XviD
Duration : 1h 26mn
Bit rate : 1 275 Kbps
Width : 640 pixels
Height : 360 pixels
Display aspect ratio : 16:9
Frame rate : 23.976 fps
Color space : YUV
Chroma subsampling : 4:2:0
Bit depth : 8 bits
Scan type : Progressive
Bits/(Pixel*Frame) : 0.231
Stream size : 786 MiB (74%)
Writing library : XviD 1.2.1 (UTC 2008-12-04)

Audio Information

ID : 1
Format : AC-3
Format/Info : Audio Coding 3
Mode extension : CM (complete main)
Codec ID : 2000
Duration : 1h 26mn
Bit rate mode : Constant
Bit rate : 448 Kbps
Channel(s) : 6 channels
Channel positions : Front: L C R, Side: L R, LFE
Sampling rate : 48.0 KHz
Bit depth : 16 bits
Stream size : 276 MiB (26%)
Alignment : Aligned on interleaves
Interleave, duration : 42 ms (1.00 video frame)
Interleave, preload duration : 512 ms




